<?xml version="1.0" encoding="UTF-8" standalone="no" ?>
<!DOCTYPE svg PUBLIC "-//W3C//DTD SVG 1.1//EN" "http://www.w3.org/Graphics/SVG/1.1/DTD/svg11.dtd">
<svg xmlns="http://www.w3.org/2000/svg" xmlns:xlink="http://www.w3.org/1999/xlink" version="1.1" width="1080" height="1080" viewBox="0 0 1080 1080" xml:space="preserve">
<desc>Created with Fabric.js 5.2.4</desc>
<defs>
</defs>
<g transform="matrix(1 0 0 1 540 540)" id="3520f88c-014a-4f48-a825-516e63e8a792"  >
<rect style="stroke: none; stroke-width: 1; stroke-dasharray: none; stroke-linecap: butt; stroke-dashoffset: 0; stroke-linejoin: miter; stroke-miterlimit: 4; fill: rgb(255,255,255); fill-rule: nonzero; opacity: 1; visibility: hidden;" vector-effect="non-scaling-stroke"  x="-540" y="-540" rx="0" ry="0" width="1080" height="1080" />
</g>
<g transform="matrix(1 0 0 1 540 540)" id="76d0d883-6431-440c-a46c-dacd2cf0f2bc"  >
</g>
<g transform="matrix(2.08 0 0 2.08 540 540)" id="6e1173ba-d90c-4e87-9a08-17cb1cf16427"  >
<path style="stroke: rgb(0,0,0); stroke-width: 0; stroke-dasharray: none; stroke-linecap: butt; stroke-dashoffset: 0; stroke-linejoin: miter; stroke-miterlimit: 4; fill: rgb(255,255,255); fill-opacity: 0.81; fill-rule: nonzero; opacity: 1;" vector-effect="non-scaling-stroke"  transform=" translate(-224, -256)" d="M 224 256 C 294.7 256 352 198.7 352 128 C 352 57.30000000000001 294.7 0 224 0 C 153.3 0 96 57.3 96 128 C 96 198.7 153.3 256 224 256 z M 313.6 288 L 296.90000000000003 288 C 274.70000000000005 298.2 250.00000000000003 304 224.00000000000003 304 C 198.00000000000003 304 173.40000000000003 298.2 151.10000000000002 288 L 134.40000000000003 288 C 60.20000000000003 288 2.842170943040401e-14 348.2 2.842170943040401e-14 422.4 L 2.842170943040401e-14 464 C 2.842170943040401e-14 490.5 21.50000000000003 512 48.00000000000003 512 L 400 512 C 426.5 512 448 490.5 448 464 L 448 422.4 C 448 348.2 387.8 288 313.6 288 z" stroke-linecap="round" />
</g>
</svg>