<svg height="64" preserveAspectRatio="none" viewBox="0 0 64 64" width="64" xmlns="http://www.w3.org/2000/svg" xmlns:xlink="http://www.w3.org/1999/xlink"><linearGradient id="a" gradientUnits="userSpaceOnUse" x1="31.999512" x2="31.99951" y1="2.995606" y2="60.986443"><stop offset="0" stop-color="#f00"/><stop offset="1" stop-color="#9f0000"/></linearGradient><path d="m62.2050781 50.2050781c0 6.6269531-5.3730469 12-12 12h-36.4101562c-6.6269531 0-12-5.3730469-12-12v-36.4101562c0-6.6269531 5.3730469-12 12-12h36.4101563c6.6269531 0 12 5.3730469 12 12v36.4101562z" fill="url(#a)"/><g fill="#fff"><path d="m2.671875 13.3681641c-.0322266.3535156-.0537109.7099609-.0537109 1.0712891v12.59375c.0058594.0058594.0117188.0117188.0166016.0175781z" opacity=".28"/><path d="m60.1064453 23.5693359c1.1884766-5.8017578 1.2216797-9.4169922 1.2216797-10.1933594-.5380859-5.9482422-5.53125-10.609375-11.6181641-10.609375h-35.4189453c-6.0761719 0-11.0625 4.6416016-11.6171875 10.5722656.0195313.3486329.4970703 4.0341798 1.2929688 10.3066407 7.2392578 7.0546875 17.125 11.4091797 28.0332031 11.4091797 10.9453125 0 20.859375-4.3857422 28.1064453-11.4853516z" opacity=".28"/><path d="m61.328125 13.3789063.0390625 13.6669922c.0048828-.0048828.0097656-.0097656.0146484-.0146484v-12.591797c0-.3583984-.0224609-.7109375-.0537109-1.0605468z" opacity=".28"/><path d="m2.6738281 27.5859375s-.0058594-10.9199219-.0283203-13.859375c-.0273438-3.5996094 3.2431641-10.8896484 10.375-10.8896484h16.8027344s-12.7050781.8144531-16.8037109 1.633789c-4.0976563.8203125-7.4931641 6.0439453-8.4423828 9.2626953-1.3789063 4.6816407-1.9033204 13.8525391-1.9033204 13.8525391z"/></g><path d="m61.7929688 36.8320313s.0058594 10.7851563.0283203 13.6894531c.0283203 3.5546875-3.3095703 10.7568359-10.5888672 10.7568359-6.7744141 0-17.1464844 0-17.1464844 0s12.9667969-.8046875 17.1494141-1.6152344c4.1806641-.8095703 7.6445313-5.9677734 8.6142578-9.1484375 1.4082031-4.625 1.9433594-13.6826171 1.9433594-13.6826171z" fill="#9b1515"/><path d="m50.2050781 63.2050781h-36.4101562c-7.1679688 0-13-5.8320313-13-13v-36.4101562c0-7.1679688 5.8320313-13 13-13h36.4101563c7.1679688 0 13 5.8320313 13 13v36.4101563c-.0000001 7.1679687-5.8320313 12.9999999-13.0000001 12.9999999zm-36.4101562-60.4101562c-6.0654297 0-11 4.9345703-11 11v36.4101563c0 6.0654297 4.9345703 11 11 11h36.4101563c6.0654297 0 11-4.9345703 11-11v-36.4101563c0-6.0654297-4.9345703-11-11-11z" fill="#d10000"/><path d="m32.4912109 16.5283203-7.4697266 31.0283203h-6.3164063l-7.46875-31.0283203h7.5966797c-.0283203.3417969.0429688.953125.2138672 1.8349609l2.8164063 13.9990234 2.8173828-13.9990234c.1992188-.9101563.2705078-1.5224609.2128906-1.8349609z" fill="#fff"/><path d="m52.7636719 39.2773438c0 2.6738281-.8681641 4.8515625-2.6035156 6.5292969-1.7070313 1.6210938-3.8984375 2.4335938-6.5722656 2.4335938-5.7763672 0-8.6640625-3.671875-8.6640625-11.0117188h7.5966797c-.1142578.5410156-.1708984 1.1386719-.1708984 1.7929688-.0283203 1.9628906.4414063 2.9433594 1.4082031 2.9433594 1.1386719 0 1.7080078-.8535156 1.7080078-2.5605469 0-1.5644531-.8681641-3.1445313-2.6035156-4.7363281-1.0810547-.9394531-2.6894531-2.4052734-4.8232422-4.3974609-1.7636719-1.7070313-2.6464844-3.6269531-2.6464844-5.7607422 0-2.5332031.7685547-4.6240234 2.3046875-6.2744141 1.4804688-1.6503906 3.4716797-2.4755859 5.9755859-2.4755859 2.7880859 0 4.9365234.9111328 6.4443359 2.7314453 1.3945313 1.6220703 2.1484375 3.8554688 2.2626953 6.7011719h-7.3837891c.0849609-.3134766.1279297-.6123047.1279297-.8964844 0-1.5644531-.3984375-2.3476563-1.1953125-2.3476563-.8535156 0-1.2802734.5263672-1.2802734 1.5791016 0 1.2802734.8818359 2.6611328 2.6464844 4.1396484 2.7314453 2.3339844 4.3388672 3.7988281 4.8222656 4.3964844 1.7646484 2.1064452 2.6464844 4.5107421 2.6464844 7.2138671z" fill="#fff"/></svg>